# Created by Metasequoia

mtllib durability.mtl

v 0.000000 70.710701 0.000000
v 70.710701 0.000000 0.000000
v -70.710701 0.000000 0.000000
v 0.000000 -70.710602 0.000000
v 0.000000 55.656200 4.000000
v 55.656200 0.000000 4.000000
v -55.656101 0.000000 4.000000
v 0.000000 -55.656101 4.000000
v 0.000000 -59.570202 4.960000
v 0.000000 -66.796501 3.040000
v -66.796501 0.000000 2.540000
v -59.570301 0.000000 4.460000
v 59.570301 0.000000 3.460000
v 66.796600 0.000000 1.540000
v 0.000000 -66.796501 1.040000
v 0.000000 -59.570202 2.960000
v 0.000000 59.570301 3.960000
v 0.000000 66.796600 2.040000
v 0.000000 -59.570202 4.960000
v 0.000000 -66.796501 3.040000
v -66.796501 0.000000 2.540000
v -59.570301 0.000000 4.460000
v 59.570301 0.000000 3.460000
v 66.796600 0.000000 1.540000
v 0.000000 -66.796501 1.040000
v 0.000000 -59.570202 2.960000
v 0.000000 59.570301 3.960000
v 0.000000 66.796600 2.040000
# 28 vertices

vt 0.68750 0.81250
vt 0.56250 0.93750
vt 0.93750 0.93750
vt 0.81250 0.81250
vt 0.93750 0.56250
vt 0.81250 0.68750
vt 0.56250 0.56250
vt 0.68750 0.68750
vt 0.39583 0.60417
vt 0.10417 0.60417
vt 0.14583 0.64583
vt 0.35417 0.64583
vt 0.39583 0.89583
vt 0.35417 0.85417
vt 0.10417 0.89583
vt 0.14583 0.85417
vt 0.39583 0.10417
vt 0.10417 0.10417
vt 0.14583 0.14583
vt 0.35417 0.14583
vt 0.39583 0.39583
vt 0.35417 0.35417
vt 0.10417 0.39583
vt 0.14583 0.35417
# 24 texture vertices

vn 0.00000 0.25679 0.96647
vn -0.00000 0.25679 0.96647
vn 0.25679 0.00000 0.96647
vn 0.25679 -0.00000 0.96647
vn 0.00000 -0.25679 0.96647
vn -0.00000 -0.25679 0.96647
vn -0.25679 -0.00000 0.96647
vn -0.25679 0.00000 0.96647
vn -0.25555 -0.24777 0.93451
vn -0.25653 0.00752 0.96651
vn -0.25688 0.00688 0.96642
vn -0.25607 -0.24823 0.93425
vn 0.25653 -0.00752 0.96651
vn 0.24213 -0.24915 0.93771
vn 0.24229 -0.24933 0.93762
vn 0.25688 -0.00688 0.96642
vn 0.00752 0.25653 0.96651
vn 0.00688 0.25688 0.96642
# 18 normal vertices

g base
s off
usemtl mat1
f 2/3/3 1/2/2 5/1/1
f 6/4/4 2/3/3 5/1/1
f 4/5/5 2/3/3 6/4/4
f 8/6/6 4/5/5 6/4/4
f 3/7/7 4/5/5 8/6/6
f 7/8/8 3/7/7 8/6/6
f 1/2/2 3/7/7 7/8/8
f 5/1/1 1/2/2 7/8/8
g color
s off
f 12/11/11 11/10/10 10/9/9
f 9/12/12 12/11/11 10/9/9
f 16/12/15 15/9/14 14/13/13
f 13/14/16 16/12/15 14/13/13
f 13/14/16 14/13/13 18/15/17
f 17/16/18 13/14/16 18/15/17
f 17/16/18 18/15/17 11/10/10
f 12/11/11 17/16/18 11/10/10
g color_r
s off
f 22/19/11 21/18/10 20/17/9
f 19/20/12 22/19/11 20/17/9
f 26/20/15 25/17/14 24/21/13
f 23/22/16 26/20/15 24/21/13
f 23/22/16 24/21/13 28/23/17
f 27/24/18 23/22/16 28/23/17
f 27/24/18 28/23/17 21/18/10
f 22/19/11 27/24/18 21/18/10
# 24 elements

