# Created by Metasequoia

mtllib activated.mtl

v 0.580311 1.050034 0.768817
v 0.713204 1.077510 0.749580
v 0.642741 1.249559 0.670354
v 0.618354 0.904771 0.785742
v 0.630132 1.096218 0.797024
v 0.775939 1.152450 0.488749
v 0.764830 1.175646 0.350782
v 0.681215 1.356468 0.479960
v 0.733109 1.002786 0.404458
v 0.812861 1.182591 0.434461
v 0.537886 0.848841 0.240246
v 0.393903 0.871715 0.248384
v 0.441283 1.025084 0.343081
v 0.424343 0.666717 0.220460
v 0.494376 0.869951 0.198510
v 0.155691 0.915057 0.426501
v 0.213314 0.873989 0.592254
v 0.239705 1.113961 0.459202
v 0.210689 0.741335 0.494433
v 0.111141 0.916728 0.503887
v 0.666284 1.048928 0.810672
v 0.725343 1.026842 0.749299
v 0.570995 1.088531 0.729656
v 0.801679 1.153679 0.396377
v 0.736948 1.139371 0.331903
v 0.744662 1.195060 0.507831
v 0.555258 0.878751 0.295019
v 0.437448 0.835789 0.196235
v 0.374209 0.826391 0.262626
v 0.129316 0.882127 0.456036
v 0.129735 0.877988 0.556467
v 0.175370 0.913071 0.578301
v 0.938765 0.980317 0.629821
v 0.964332 0.592703 0.452726
v 0.989542 0.393964 0.507494
v 0.900715 0.678198 0.709048
v 0.905057 0.492224 0.925948
v 0.826282 0.159037 0.841005
v 0.944268 0.151839 0.732250
v 0.951307 0.144201 0.499892
v 0.846878 0.039883 0.503478
v 0.799768 0.072790 0.678657
v 0.693727 -0.115514 0.564492
v 1.045696 0.556665 0.707479
v 1.026492 0.416812 0.843378
v 0.985774 0.290524 0.804557
v 0.752057 0.655308 0.806297
v 0.842682 0.711376 0.763404
v 0.769603 0.860054 0.678009
v 1.015475 0.560085 0.813172
v 0.879528 0.335276 0.823419
v 0.875478 0.053538 0.616450
v 1.005224 0.283836 0.530982
v 0.887259 0.409198 0.874370
v 0.933305 0.665108 0.818674
v 0.729106 0.543427 0.106271
v 0.810179 0.431759 0.104725
v 0.527910 0.516486 0.077152
v 0.555704 0.321555 0.025459
v 0.792521 0.236401 0.135354
v 0.495862 0.215715 0.064898
v 0.724605 0.107856 0.184377
v 0.505935 0.101353 0.146938
v 0.593667 0.018019 0.239296
v 0.621793 0.769796 0.178425
v 0.626650 0.532429 0.022001
v 0.705982 0.361022 0.008460
v 0.690751 0.238233 0.005430
v 0.656734 0.122006 0.073520
v 0.084325 0.873906 0.599148
v 0.033845 0.716994 0.583543
v 0.139908 0.725060 0.724827
v 0.117479 0.634000 0.862169
v -0.020776 0.622510 0.656704
v -0.104051 0.527508 0.635144
v 0.103194 0.528607 0.998732
v 0.081329 0.398977 1.030370
v -0.154986 0.440685 0.565365
v -0.095739 0.325684 0.583073
v 0.107583 0.238948 0.932327
v -0.003530 0.243340 0.489083
v 0.166479 0.142428 0.803317
v 0.119372 0.159685 0.473913
v 0.299724 0.052263 0.558716
v 0.039772 0.716142 0.724950
v -0.022925 0.630317 0.770432
v -0.032805 0.527743 0.832829
v -0.079553 0.419940 0.824016
v -0.020772 0.282394 0.779830
v 0.015176 0.158459 0.674254
v 0.133251 0.070273 0.544906
v 0.500000 0.528341 0.360793
v 0.368348 0.528341 0.456444
v 0.418635 0.528341 0.611210
v 0.581365 0.528341 0.611210
v 0.631652 0.528341 0.456444
v 0.500000 0.471193 0.639207
v 0.366864 0.471193 0.542478
v 0.417718 0.471193 0.385968
v 0.582282 0.471193 0.385968
v 0.633136 0.471193 0.542478
v 0.500000 0.213244 0.499220
v 0.500000 0.786756 0.499220
v 0.500000 0.528341 0.360793
v 0.631652 0.528341 0.456444
v 0.582282 0.471193 0.385968
v 0.500000 0.786756 0.499220
v 0.500000 0.528341 0.360793
v 0.368348 0.528341 0.456444
v 0.417718 0.471193 0.385968
v 0.500000 0.786756 0.499220
v 0.368348 0.528341 0.456444
v 0.418635 0.528341 0.611210
v 0.366864 0.471193 0.542478
v 0.500000 0.786756 0.499220
v 0.418635 0.528341 0.611210
v 0.581365 0.528341 0.611210
v 0.500000 0.471193 0.639207
v 0.500000 0.786756 0.499220
v 0.581365 0.528341 0.611210
v 0.631652 0.528341 0.456444
v 0.633136 0.471193 0.542478
v 0.500000 0.544177 0.716991
v 0.705214 0.544177 0.567894
v 0.626829 0.544177 0.326650
v 0.373171 0.544177 0.326650
v 0.294786 0.544177 0.567894
v 0.500000 0.455097 0.283009
v 0.707527 0.455097 0.433787
v 0.628259 0.455097 0.677749
v 0.371741 0.455097 0.677749
v 0.292473 0.455097 0.433787
v 0.500000 0.053015 0.501216
v 0.500000 0.946985 0.501216
v 0.500000 0.544177 0.716991
v 0.294786 0.544177 0.567894
v 0.371741 0.455097 0.677749
v 0.500000 0.946985 0.501216
v 0.500000 0.544177 0.716991
v 0.705214 0.544177 0.567894
v 0.628259 0.455097 0.677749
v 0.500000 0.946985 0.501216
v 0.705214 0.544177 0.567894
v 0.626829 0.544177 0.326650
v 0.707527 0.455097 0.433787
v 0.500000 0.946985 0.501216
v 0.626829 0.544177 0.326650
v 0.373171 0.544177 0.326650
v 0.500000 0.455097 0.283009
v 0.500000 0.946985 0.501216
v 0.373171 0.544177 0.326650
v 0.294786 0.544177 0.567894
v 0.292473 0.455097 0.433787
v 0.580311 1.050034 0.768817
v 0.713204 1.077510 0.749580
v 0.642741 1.249559 0.670354
v 0.618354 0.904771 0.785742
v 0.630132 1.096218 0.797024
v 0.775939 1.152450 0.488749
v 0.764830 1.175646 0.350782
v 0.681215 1.356468 0.479960
v 0.733109 1.002786 0.404458
v 0.812861 1.182591 0.434461
v 0.537886 0.848841 0.240246
v 0.393903 0.871715 0.248384
v 0.441283 1.025084 0.343081
v 0.424343 0.666717 0.220460
v 0.494376 0.869951 0.198510
v 0.155691 0.915057 0.426501
v 0.213314 0.873989 0.592254
v 0.239705 1.113961 0.459202
v 0.210689 0.741335 0.494433
v 0.111141 0.916728 0.503887
v 0.666284 1.048928 0.810672
v 0.725343 1.026842 0.749299
v 0.570995 1.088531 0.729656
v 0.801679 1.153679 0.396377
v 0.736948 1.139371 0.331903
v 0.744662 1.195060 0.507831
v 0.555258 0.878751 0.295019
v 0.437448 0.835789 0.196235
v 0.374209 0.826391 0.262626
v 0.129316 0.882127 0.456036
v 0.129735 0.877988 0.556467
v 0.175370 0.913071 0.578301
v 0.938765 0.980317 0.629821
v 0.964332 0.592703 0.452726
v 0.989542 0.393964 0.507494
v 0.900715 0.678198 0.709048
v 0.905057 0.492224 0.925948
v 0.826282 0.159037 0.841005
v 0.944268 0.151839 0.732250
v 0.951307 0.144201 0.499892
v 0.846878 0.039883 0.503478
v 0.799768 0.072790 0.678657
v 0.693727 -0.115514 0.564492
v 1.045696 0.556665 0.707479
v 1.026492 0.416812 0.843378
v 0.985774 0.290524 0.804557
v 0.752057 0.655308 0.806297
v 0.842682 0.711376 0.763404
v 0.769603 0.860054 0.678009
v 1.015475 0.560085 0.813172
v 0.879528 0.335276 0.823419
v 0.875478 0.053538 0.616450
v 1.005224 0.283836 0.530982
v 0.887259 0.409198 0.874370
v 0.933305 0.665108 0.818674
v 0.729106 0.543427 0.106271
v 0.810179 0.431759 0.104725
v 0.527910 0.516486 0.077152
v 0.555704 0.321555 0.025459
v 0.792521 0.236401 0.135354
v 0.495862 0.215715 0.064898
v 0.724605 0.107856 0.184377
v 0.505935 0.101353 0.146938
v 0.593667 0.018019 0.239296
v 0.621793 0.769796 0.178425
v 0.626650 0.532429 0.022001
v 0.705982 0.361022 0.008460
v 0.690751 0.238233 0.005430
v 0.656734 0.122006 0.073520
v 0.084325 0.873906 0.599148
v 0.033845 0.716994 0.583543
v 0.139908 0.725060 0.724827
v 0.117479 0.634000 0.862169
v -0.020776 0.622510 0.656704
v -0.104051 0.527508 0.635144
v 0.103194 0.528607 0.998732
v 0.081329 0.398977 1.030370
v -0.154986 0.440685 0.565365
v -0.095739 0.325684 0.583073
v 0.107583 0.238948 0.932327
v -0.003530 0.243340 0.489083
v 0.166479 0.142428 0.803317
v 0.119372 0.159685 0.473913
v 0.299724 0.052263 0.558716
v 0.039772 0.716142 0.724950
v -0.022925 0.630317 0.770432
v -0.032805 0.527743 0.832829
v -0.079553 0.419940 0.824016
v -0.020772 0.282394 0.779830
v 0.015176 0.158459 0.674254
v 0.133251 0.070273 0.544906
# 244 vertices

vt 0.48593 0.15161
vt 0.48850 0.14289
vt 0.46506 0.08946
vt 0.47580 0.18606
vt 0.49600 0.14059
vt 0.50362 0.12343
vt 0.47609 0.02197
vt 0.46725 0.07604
vt 0.48769 0.88043
vt 0.48369 0.89168
vt 0.49348 0.94803
vt 0.50493 0.83195
vt 0.52023 0.94879
vt 0.52021 0.96565
vt 0.53689 0.94927
vt 0.53380 0.95230
vt 0.23263 0.24913
vt 0.22180 0.25820
vt 0.19415 0.25711
vt 0.23277 0.37680
vt 0.20406 0.21919
vt 0.23407 0.10431
vt 0.24033 0.27505
vt 0.24290 0.24052
vt 0.31804 0.88280
vt 0.31655 0.79301
vt 0.29141 0.86623
vt 0.29442 0.88558
vt 0.33694 0.88489
vt 0.33132 0.89112
vt 0.30824 0.97440
vt 0.33945 0.89621
vt 0.58252 0.40656
vt 0.59701 0.04170
vt 0.56444 0.29405
vt 0.55476 0.40148
vt 0.66117 0.38484
vt 0.64086 0.55834
vt 0.55019 0.49402
vt 0.51587 0.45020
vt 0.52828 0.24726
vt 0.54356 0.01551
vt 0.49630 0.31433
vt 0.49886 0.60040
vt 0.51252 0.70439
vt 0.56434 0.69995
vt 0.55247 0.58985
vt 0.60866 0.80864
vt 0.55345 0.83411
vt 0.62187 0.97313
vt 0.65496 0.83492
vt 0.64051 0.73654
vt 0.63188 0.62220
vt 0.50691 0.52928
vt 0.54216 0.32811
vt 0.87290 0.33536
vt 0.84766 0.44787
vt 0.91937 0.33990
vt 0.90207 0.02502
vt 0.89607 0.47800
vt 0.93887 0.58579
vt 0.90066 0.61889
vt 0.84632 0.65366
vt 0.98036 0.71664
vt 0.91536 0.75939
vt 0.97947 0.94425
vt 0.85803 0.81650
vt 0.90523 0.97641
vt 0.95174 0.33057
vt 0.43569 0.16364
vt 0.38343 0.00970
vt 0.42102 0.19633
vt 0.46823 0.27774
vt 0.37600 0.18762
vt 0.42570 0.28234
vt 0.43854 0.36367
vt 0.39570 0.27133
vt 0.48955 0.36109
vt 0.49009 0.44630
vt 0.38633 0.36517
vt 0.43148 0.43660
vt 0.36828 0.42322
vt 0.37327 0.52078
vt 0.42816 0.55490
vt 0.34540 0.62020
vt 0.47986 0.58421
vt 0.40382 0.67192
vt 0.33211 0.75400
vt 0.37213 0.97724
vt 0.46464 0.72234
vt 0.36220 0.81733
vt 0.00728 0.00960
vt 0.00892 0.00304
vt 0.01056 0.00960
vt 0.00892 0.01124
vt 0.01024 0.00928
vt 0.00860 0.01092
vt 0.00696 0.00928
vt 0.00860 0.00272
vt 0.00665 0.00897
vt 0.00829 0.00241
vt 0.00993 0.00897
vt 0.00829 0.01061
vt 0.00791 0.01023
vt 0.00955 0.00367
vt 0.01119 0.01023
vt 0.00955 0.01187
vt 0.00759 0.00991
vt 0.00923 0.00335
vt 0.01087 0.00991
vt 0.00923 0.01155
vt 0.00518 0.00551
vt 0.00646 0.00422
vt 0.00775 0.00551
vt 0.00646 0.01131
vt 0.00700 0.00733
vt 0.00829 0.00604
vt 0.00958 0.00733
vt 0.00829 0.01313
vt 0.00912 0.00687
vt 0.00783 0.01267
vt 0.00654 0.00687
vt 0.00783 0.00559
vt 0.00866 0.00642
vt 0.00738 0.01222
vt 0.00609 0.00642
vt 0.00738 0.00513
vt 0.00821 0.00596
vt 0.00692 0.01176
vt 0.00563 0.00596
vt 0.00692 0.00467
vt 0.73257 0.31223
vt 0.67051 0.56050
vt 0.60844 0.31223
vt 0.67051 0.25017
vt 0.62035 0.32415
vt 0.68241 0.26209
vt 0.74449 0.32415
vt 0.68241 0.57241
vt 0.75639 0.33606
vt 0.69434 0.58433
vt 0.63227 0.33606
vt 0.69434 0.27399
vt 0.70874 0.28840
vt 0.64668 0.53668
vt 0.58462 0.28840
vt 0.64668 0.22634
vt 0.72066 0.30032
vt 0.65859 0.54858
vt 0.59652 0.30032
vt 0.65859 0.23826
vt 0.81203 0.46701
vt 0.76328 0.51576
vt 0.71453 0.46701
vt 0.76328 0.24762
vt 0.74308 0.39806
vt 0.69434 0.44682
vt 0.64557 0.39806
vt 0.69434 0.17867
vt 0.66282 0.41530
vt 0.71158 0.19591
vt 0.76032 0.41530
vt 0.71158 0.46405
vt 0.68006 0.43253
vt 0.72880 0.21314
vt 0.77756 0.43253
vt 0.72880 0.48129
vt 0.69729 0.44977
vt 0.74604 0.23038
vt 0.79479 0.44977
vt 0.74604 0.49853
# 171 texture vertices

vn 0.43777 0.04280 -0.89807
vn 0.60999 -0.24124 -0.75479
vn 0.58085 -0.18487 -0.79274
vn 0.43777 0.04280 -0.89807
vn -0.70360 0.08044 -0.70603
vn -0.61969 -0.30642 -0.72256
vn -0.65414 -0.19943 -0.72961
vn -0.70360 0.08044 -0.70603
vn -0.50464 -0.54707 -0.66787
vn -0.50464 -0.54707 -0.66787
vn 0.69365 -0.45705 -0.55674
vn 0.69365 -0.45705 -0.55674
vn -0.72097 -0.31681 -0.61631
vn -0.87351 0.08279 -0.47971
vn -0.88173 0.14562 -0.44872
vn -0.72097 -0.31681 -0.61631
vn -0.87922 0.44489 0.17045
vn -0.87003 0.42794 0.24479
vn -0.74306 -0.47998 0.46635
vn -0.78584 -0.07864 0.61341
vn -0.74306 -0.47998 0.46635
vn -0.74306 -0.47998 0.46635
vn -0.70827 0.27557 0.64994
vn -0.41164 0.38961 0.82387
vn -0.41164 0.38961 0.82387
vn -0.41164 0.38961 0.82387
vn -0.41164 0.38961 0.82387
vn -0.63312 -0.61856 0.46535
vn -0.63312 -0.61856 0.46535
vn -0.63312 -0.61856 0.46535
vn -0.63312 -0.61856 0.46535
vn 0.72587 -0.02987 0.68718
vn 0.53706 -0.38034 0.75293
vn 0.57728 -0.32228 0.75025
vn 0.34982 -0.59246 0.72569
vn 0.34982 -0.59246 0.72569
vn 0.95698 0.09204 0.27516
vn 0.81719 -0.32290 0.47742
vn 0.81719 -0.32290 0.47742
vn 0.95812 0.11175 0.26365
vn 0.58695 -0.14826 -0.79593
vn 0.63879 -0.50962 -0.57640
vn 0.57217 -0.09851 -0.81420
vn 0.87898 0.47659 0.01598
vn 0.87898 0.47659 0.01598
vn 0.38629 0.31480 -0.86700
vn -0.89760 -0.24030 -0.36956
vn -0.49057 -0.57678 -0.65320
vn -0.49057 -0.57678 -0.65320
vn -0.67700 -0.25399 -0.69077
vn -0.95098 -0.11343 0.28768
vn -0.95098 -0.11343 0.28768
vn -0.95098 -0.11343 0.28768
vn -0.99545 -0.00440 0.09520
vn -0.90659 0.12133 -0.40418
vn -0.34269 -0.14584 -0.92806
vn -0.06818 -0.55068 -0.83192
vn -0.04332 -0.56192 -0.82606
vn -0.25326 0.36543 -0.89572
vn -0.37732 0.54250 -0.75055
vn -0.69134 0.58868 -0.41893
vn -0.75725 0.31693 -0.57108
vn -0.61719 0.75700 -0.21453
vn -0.41523 0.80801 -0.41798
vn -0.59461 0.73761 -0.31995
vn -0.67973 0.71492 -0.16388
vn -0.85261 0.52236 -0.01404
vn -0.97773 0.20846 -0.02429
vn -0.29801 0.32942 -0.89592
vn -0.12613 0.44445 -0.88688
vn -0.17162 -0.49902 -0.84943
vn -0.54058 -0.44320 0.71509
vn -0.55323 -0.11207 0.82546
vn -0.00474 -0.36770 0.92993
vn -0.54058 -0.44320 0.71509
vn -0.36947 -0.00822 0.92921
vn 0.13722 -0.04180 0.98966
vn -0.73717 0.32320 0.59339
vn -0.73400 0.33953 0.58819
vn 0.22347 0.25073 0.94191
vn 0.24049 0.37656 0.89463
vn -0.19584 0.69260 0.69422
vn 0.05582 0.72962 0.68157
vn -0.42165 0.73718 0.52799
vn -0.13278 0.86159 0.48994
vn 0.50090 -0.31879 0.80465
vn 0.50090 -0.31879 0.80465
vn 0.06537 -0.74325 -0.66581
vn 0.06537 -0.74325 -0.66581
vn 0.19759 -0.70146 -0.68477
vn 0.48766 -0.58731 -0.64595
vn 0.88764 -0.45880 -0.03998
vn 0.88764 -0.45880 -0.03998
vn 0.90448 -0.42578 -0.02496
vn 0.80991 -0.48368 -0.33182
vn 0.78508 -0.38133 -0.48810
vn 0.93111 -0.35651 -0.07699
vn 0.67563 -0.48949 -0.55129
vn 0.80072 0.00513 -0.59901
vn 0.93033 -0.21443 -0.29750
vn 0.89733 0.06591 -0.43641
vn 0.95943 0.06346 -0.27472
vn 0.87552 0.43626 -0.20769
vn 0.79823 0.50270 -0.33185
vn 0.81013 0.58176 0.07251
vn 0.65360 0.61489 -0.44127
vn 0.67282 0.73284 -0.10126
vn 0.71178 0.69886 0.07042
vn 0.45735 0.86863 -0.19056
vn 0.35479 0.88339 -0.30620
vn 0.57230 0.81925 -0.03612
vn -0.53805 -0.40257 0.74056
vn -0.53805 -0.40257 0.74056
vn -0.53805 -0.40257 0.74056
vn 0.53805 -0.40257 0.74056
vn 0.53805 -0.40257 0.74056
vn 0.53805 -0.40257 0.74056
vn 0.53805 -0.40257 0.74056
vn 0.87059 -0.40257 -0.28287
vn 0.87059 -0.40257 -0.28287
vn 0.00000 -0.40257 -0.91539
vn 0.00000 -0.40257 -0.91539
vn 0.00000 -0.40257 -0.91539
vn -0.87059 -0.40257 -0.28287
vn -0.87059 -0.40257 -0.28287
vn 0.53373 0.41891 -0.73461
vn 0.53373 0.41891 -0.73461
vn 0.53373 0.41891 -0.73461
vn 0.53373 0.41891 -0.73461
vn -0.53373 0.41891 -0.73461
vn -0.53373 0.41891 -0.73461
vn -0.53373 0.41891 -0.73461
vn -0.53373 0.41891 -0.73461
vn -0.86359 0.41891 0.28060
vn -0.86359 0.41891 0.28060
vn -0.86359 0.41891 0.28060
vn -0.86359 0.41891 0.28060
vn 0.00000 0.41891 0.90803
vn 0.00000 0.41891 0.90803
vn 0.86359 0.41891 0.28060
vn 0.86359 0.41891 0.28060
vn 0.86359 0.41891 0.28060
vn 0.86359 0.41891 0.28060
vn 0.53805 -0.40257 -0.74056
vn 0.53805 -0.40257 -0.74056
vn -0.53805 -0.40257 -0.74056
vn -0.53805 -0.40257 -0.74056
vn -0.53805 -0.40257 -0.74056
vn -0.87059 -0.40257 0.28287
vn -0.87059 -0.40257 0.28287
vn -0.87059 -0.40257 0.28287
vn -0.87059 -0.40257 0.28287
vn 0.00000 -0.40257 0.91539
vn 0.00000 -0.40257 0.91539
vn 0.00000 -0.40257 0.91539
vn 0.87059 -0.40257 0.28287
vn 0.87059 -0.40257 0.28287
vn 0.87059 -0.40257 0.28287
vn -0.53373 0.41891 0.73461
vn -0.53373 0.41891 0.73461
vn -0.53373 0.41891 0.73461
vn 0.53373 0.41891 0.73461
vn 0.53373 0.41891 0.73461
vn 0.53373 0.41891 0.73461
vn 0.86359 0.41891 -0.28060
vn 0.86359 0.41891 -0.28060
vn 0.86359 0.41891 -0.28060
vn 0.00000 0.41891 -0.90803
vn 0.00000 0.41891 -0.90803
vn 0.00000 0.41891 -0.90803
vn -0.86359 0.41891 -0.28060
vn -0.86359 0.41891 -0.28060
vn -0.86359 0.41891 -0.28060
vn -0.43777 -0.04280 0.89807
vn -0.43777 -0.04280 0.89807
vn -0.58085 0.18487 0.79274
vn -0.60999 0.24124 0.75479
vn 0.70360 -0.08044 0.70603
vn 0.70360 -0.08044 0.70603
vn 0.65414 0.19943 0.72961
vn 0.61969 0.30642 0.72256
vn 0.50464 0.54707 0.66787
vn 0.50464 0.54707 0.66787
vn -0.69365 0.45705 0.55674
vn -0.69365 0.45705 0.55674
vn 0.72097 0.31681 0.61631
vn 0.72097 0.31681 0.61631
vn 0.88173 -0.14562 0.44872
vn 0.87351 -0.08279 0.47971
vn 0.87922 -0.44489 -0.17045
vn 0.87003 -0.42794 -0.24479
vn 0.74306 0.47998 -0.46635
vn 0.74306 0.47998 -0.46635
vn 0.74306 0.47998 -0.46635
vn 0.78584 0.07864 -0.61341
vn 0.70827 -0.27557 -0.64994
vn 0.41164 -0.38961 -0.82387
vn 0.41164 -0.38961 -0.82387
vn 0.41164 -0.38961 -0.82387
vn 0.63312 0.61856 -0.46535
vn 0.63312 0.61856 -0.46535
vn 0.63312 0.61856 -0.46535
vn 0.63312 0.61856 -0.46535
vn -0.72587 0.02987 -0.68718
vn -0.72587 0.02987 -0.68718
vn -0.57728 0.32228 -0.75025
vn -0.53706 0.38034 -0.75293
vn -0.34982 0.59246 -0.72569
vn -0.34982 0.59246 -0.72569
vn -0.95698 -0.09204 -0.27516
vn -0.95812 -0.11175 -0.26365
vn -0.81719 0.32290 -0.47742
vn -0.81719 0.32290 -0.47742
vn -0.58695 0.14826 0.79593
vn -0.57217 0.09851 0.81420
vn -0.63879 0.50962 0.57640
vn -0.87898 -0.47659 -0.01598
vn -0.87898 -0.47659 -0.01598
vn -0.38629 -0.31480 0.86700
vn 0.89760 0.24030 0.36956
vn 0.67700 0.25399 0.69077
vn 0.49057 0.57678 0.65320
vn 0.49057 0.57678 0.65320
vn 0.95098 0.11343 -0.28768
vn 0.99545 0.00440 -0.09520
vn 0.95098 0.11343 -0.28768
vn 0.95098 0.11343 -0.28768
vn 0.90659 -0.12133 0.40418
vn 0.34269 0.14584 0.92806
vn 0.04332 0.56192 0.82606
vn 0.04332 0.56192 0.82606
vn 0.06818 0.55068 0.83192
vn 0.25326 -0.36543 0.89572
vn 0.75725 -0.31693 0.57108
vn 0.69134 -0.58868 0.41893
vn 0.37732 -0.54250 0.75055
vn 0.61719 -0.75700 0.21453
vn 0.41523 -0.80801 0.41798
vn 0.67973 -0.71492 0.16388
vn 0.59461 -0.73761 0.31995
vn 0.85261 -0.52236 0.01404
vn 0.97773 -0.20846 0.02429
vn 0.29801 -0.32942 0.89592
vn 0.12613 -0.44445 0.88688
vn 0.17162 0.49902 0.84943
vn 0.54058 0.44320 -0.71509
vn 0.54058 0.44320 -0.71509
vn 0.00474 0.36770 -0.92993
vn 0.55323 0.11207 -0.82546
vn -0.13722 0.04180 -0.98966
vn 0.36947 0.00822 -0.92921
vn 0.73717 -0.32320 -0.59339
vn 0.73400 -0.33953 -0.58819
vn -0.24049 -0.37656 -0.89463
vn -0.22347 -0.25073 -0.94191
vn -0.05582 -0.72962 -0.68157
vn 0.19584 -0.69260 -0.69422
vn 0.42165 -0.73718 -0.52799
vn 0.13278 -0.86159 -0.48994
vn -0.50090 0.31879 -0.80465
vn -0.50090 0.31879 -0.80465
vn -0.06537 0.74325 0.66581
vn -0.48766 0.58731 0.64595
vn -0.19759 0.70146 0.68477
vn -0.06537 0.74325 0.66581
vn -0.88764 0.45880 0.03998
vn -0.80991 0.48368 0.33182
vn -0.90448 0.42578 0.02496
vn -0.88764 0.45880 0.03998
vn -0.78508 0.38133 0.48810
vn -0.93111 0.35651 0.07699
vn -0.67563 0.48949 0.55129
vn -0.80072 -0.00513 0.59901
vn -0.89733 -0.06591 0.43641
vn -0.93033 0.21443 0.29750
vn -0.95943 -0.06346 0.27472
vn -0.87552 -0.43626 0.20769
vn -0.79823 -0.50270 0.33185
vn -0.81013 -0.58176 -0.07251
vn -0.65360 -0.61489 0.44127
vn -0.67282 -0.73284 0.10126
vn -0.71178 -0.69886 -0.07042
vn -0.35479 -0.88339 0.30620
vn -0.45734 -0.86863 0.19056
vn -0.57230 -0.81925 0.03612
# 285 normal vertices

g Activated
s 1
usemtl mat1
f 4/4/4 1/3/3 5/2/2 21/1/1
f 4/4/8 21/1/7 2/6/6 22/5/5
f 21/1/7 5/2/10 3/7/9 2/6/6
f 3/7/12 5/2/2 1/3/3 23/8/11
f 8/12/16 10/11/15 6/10/14 26/9/13
f 9/14/18 6/10/14 10/11/15 24/13/17
f 10/11/22 8/12/21 7/15/20 24/13/19
f 9/14/18 24/13/17 7/15/20 25/16/23
f 14/20/27 11/19/26 15/18/25 28/17/24
f 13/22/31 15/18/30 11/19/29 27/21/28
f 14/20/32 28/17/34 12/24/33 29/23/32
f 15/18/36 13/22/35 12/24/33 28/17/34
f 30/28/40 16/27/39 18/26/38 20/25/37
f 31/30/43 20/25/42 18/26/42 32/29/41
f 20/25/37 31/30/45 19/31/44 30/28/40
f 32/29/41 17/32/46 19/31/46 31/30/43
f 50/36/50 36/35/49 33/34/48 44/33/47
f 35/38/54 44/33/53 33/34/52 34/37/51
f 44/33/47 35/38/54 45/39/55 50/36/50
f 47/43/58 49/42/58 48/41/57 37/40/56
f 46/47/62 39/46/61 38/45/60 51/44/59
f 42/49/64 38/45/60 39/46/61 52/48/63
f 41/51/66 43/50/65 42/49/64 52/48/63
f 39/46/61 40/52/67 41/51/66 52/48/63
f 40/52/67 39/46/61 46/47/62 53/53/68
f 45/39/70 46/47/62 51/44/59 54/54/69
f 46/47/62 45/39/55 35/38/54 53/53/68
f 37/40/56 50/36/50 45/39/55 54/54/69
f 50/36/50 37/40/56 48/41/57 55/55/71
f 65/59/75 66/58/74 57/57/73 56/56/72
f 59/61/77 67/60/76 57/57/73 66/58/74
f 60/63/79 57/57/73 67/60/76 68/62/78
f 61/64/81 68/62/80 67/60/76 59/61/77
f 63/66/83 69/65/82 68/62/80 61/64/81
f 69/65/82 62/67/84 60/63/79 68/62/78
f 63/66/83 64/68/85 62/67/84 69/65/82
f 65/59/87 58/69/86 59/61/77 66/58/74
f 73/73/91 85/72/90 70/71/89 72/70/88
f 86/75/95 71/74/94 70/71/93 85/72/92
f 85/72/90 73/73/91 87/76/96 86/75/95
f 87/76/96 74/77/97 71/74/94 86/75/95
f 77/79/99 87/76/96 73/73/91 76/78/98
f 88/81/101 75/80/100 74/77/97 87/76/96
f 75/80/100 88/81/101 79/83/103 78/82/102
f 88/81/101 87/76/96 77/79/99 89/84/104
f 81/85/105 79/83/103 88/81/101 89/84/104
f 90/87/107 89/84/104 77/79/99 80/86/106
f 89/84/104 90/87/107 83/88/108 81/85/105
f 80/86/106 82/90/110 84/89/109 90/87/107
f 84/89/109 91/91/111 83/88/108 90/87/107
f 94/95/113 98/94/114 102/93/113 97/92/112
f 102/99/118 101/98/117 95/97/116 97/96/115
f 96/103/120 101/102/120 102/101/119 100/100/119
f 92/107/123 100/106/121 102/105/122 99/104/121
f 93/111/124 99/110/125 102/109/124 98/108/124
f 103/115/129 105/114/128 106/113/127 104/112/126
f 107/119/133 108/118/132 110/117/131 109/116/130
f 114/123/137 113/122/136 111/121/135 112/120/134
f 118/127/139 117/126/138 115/125/138 116/124/138
f 122/131/143 121/130/142 119/129/141 120/128/140
f 125/135/144 129/134/145 133/133/145 128/132/144
f 133/139/147 132/138/148 126/137/147 128/136/146
f 127/143/152 132/142/151 133/141/150 131/140/149
f 123/147/155 131/146/153 133/145/154 130/144/153
f 124/151/158 130/150/156 133/149/157 129/148/156
f 134/155/159 136/154/161 137/153/160 135/152/159
f 138/159/164 139/158/164 141/157/163 140/156/162
f 145/163/167 144/162/165 142/161/166 143/160/165
f 149/167/170 148/166/168 146/165/169 147/164/168
f 153/171/173 152/170/171 150/169/172 151/168/171
f 158/2/177 154/3/176 157/4/175 174/1/174
f 155/6/181 174/1/180 157/4/179 175/5/178
f 156/7/183 158/2/182 174/1/180 155/6/181
f 154/3/176 158/2/177 156/7/185 176/8/184
f 159/10/189 163/11/188 161/12/187 179/9/186
f 163/11/188 159/10/189 162/14/191 177/13/190
f 160/15/195 161/12/194 163/11/193 177/13/192
f 160/15/195 177/13/190 162/14/191 178/16/196
f 168/18/199 164/19/198 167/20/197 181/17/197
f 164/19/203 168/18/202 166/22/201 180/21/200
f 165/24/207 181/17/206 167/20/205 182/23/204
f 165/24/207 166/22/209 168/18/208 181/17/206
f 171/26/213 169/27/212 183/28/211 173/25/210
f 171/26/216 173/25/216 184/30/215 185/29/214
f 172/31/218 184/30/217 173/25/210 183/28/211
f 172/31/219 170/32/219 185/29/214 184/30/215
f 186/34/223 189/35/222 203/36/221 197/33/220
f 186/34/227 197/33/226 188/38/225 187/37/224
f 198/39/228 188/38/225 197/33/220 203/36/221
f 201/41/232 202/42/231 200/43/230 190/40/229
f 191/45/236 192/46/235 199/47/234 204/44/233
f 192/46/235 191/45/236 195/49/238 205/48/237
f 195/49/238 196/50/240 194/51/239 205/48/237
f 194/51/239 193/52/241 192/46/235 205/48/237
f 199/47/234 192/46/235 193/52/241 206/53/242
f 204/44/233 199/47/234 198/39/244 207/54/243
f 188/38/225 198/39/228 199/47/234 206/53/242
f 198/39/228 203/36/221 190/40/229 207/54/243
f 201/41/232 190/40/229 203/36/221 208/55/245
f 210/57/249 219/58/248 218/59/247 209/56/246
f 210/57/249 220/60/251 212/61/250 219/58/248
f 220/60/251 210/57/249 213/63/253 221/62/252
f 220/60/251 221/62/255 214/64/254 212/61/250
f 221/62/255 222/65/257 216/66/256 214/64/254
f 213/63/253 215/67/258 222/65/257 221/62/252
f 215/67/258 217/68/259 216/66/256 222/65/257
f 212/61/250 211/69/261 218/59/260 219/58/248
f 223/71/265 238/72/264 226/73/263 225/70/262
f 223/71/269 224/74/268 239/75/267 238/72/266
f 240/76/270 226/73/263 238/72/264 239/75/267
f 224/74/268 227/77/271 240/76/270 239/75/267
f 226/73/263 240/76/270 230/79/273 229/78/272
f 227/77/271 228/80/275 241/81/274 240/76/270
f 232/83/277 241/81/274 228/80/275 231/82/276
f 230/79/273 240/76/270 241/81/274 242/84/278
f 241/81/274 232/83/277 234/85/279 242/84/278
f 230/79/273 242/84/278 243/87/281 233/86/280
f 236/88/282 243/87/281 242/84/278 234/85/279
f 237/89/284 235/90/283 233/86/280 243/87/281
f 236/88/282 244/91/285 237/89/284 243/87/281
# 120 elements

