# Created by Metasequoia

mtllib stand_w_2.mtl

v 0.874906 0.283856 0.187176
v 0.812422 0.283856 0.187176
v 0.874906 0.173966 0.070417
v 0.812422 0.173966 0.070417
v 0.838082 0.661764 0.061065
v 0.838082 0.661764 0.018391
v 0.838082 0.690962 0.061065
v 0.838082 0.690962 0.018391
v 0.167804 0.661764 0.061065
v 0.167804 0.661764 0.018391
v 0.167804 0.690962 0.061065
v 0.167804 0.690962 0.018391
v 0.838082 0.129847 0.061065
v 0.838082 0.129847 0.018391
v 0.838082 0.159046 0.061065
v 0.838082 0.159046 0.018391
v 0.167804 0.129847 0.061065
v 0.167804 0.129847 0.018391
v 0.167804 0.159046 0.061065
v 0.167804 0.159046 0.018391
v 0.868241 0.317012 0.129307
v 0.819087 0.317012 0.129307
v 0.874906 0.276748 0.063012
v 0.812422 0.276748 0.063012
v 0.868241 0.356462 0.168417
v 0.867496 0.357782 0.162564
v 0.819087 0.356462 0.168417
v 0.819832 0.357782 0.162564
v 0.125094 0.283856 0.187176
v 0.187578 0.283856 0.187176
v 0.125094 0.173966 0.070417
v 0.187578 0.173966 0.070417
v 0.131759 0.317012 0.129307
v 0.180913 0.317012 0.129307
v 0.125094 0.276748 0.063012
v 0.187578 0.276748 0.063012
v 0.131759 0.356462 0.168417
v 0.132504 0.357782 0.162564
v 0.180913 0.356462 0.168417
v 0.180168 0.357782 0.162564
v 0.876372 0.749938 0.000125
v 0.876372 0.076396 0.000125
v 0.876372 0.749938 0.079331
v 0.876372 0.076396 0.079331
v 0.811926 0.076396 0.079331
v 0.811926 0.076396 0.000125
v 0.811926 0.749938 0.079331
v 0.811926 0.749938 0.000125
v 0.123628 0.749938 0.000125
v 0.123628 0.076396 0.000125
v 0.123628 0.749938 0.079331
v 0.123628 0.076396 0.079331
v 0.188074 0.076396 0.079331
v 0.188074 0.076396 0.000125
v 0.188074 0.749938 0.079331
v 0.188074 0.749938 0.000125
v 0.874906 0.612566 0.187176
v 0.812422 0.612566 0.187176
v 0.874906 0.502676 0.070417
v 0.812422 0.502676 0.070417
v 0.868241 0.645721 0.129307
v 0.819087 0.645721 0.129307
v 0.874906 0.605457 0.063012
v 0.812422 0.605457 0.063012
v 0.868241 0.685172 0.168417
v 0.867496 0.686492 0.162564
v 0.819087 0.685172 0.168417
v 0.819832 0.686492 0.162564
v 0.125094 0.612566 0.187176
v 0.187578 0.612566 0.187176
v 0.125094 0.502676 0.070417
v 0.187578 0.502676 0.070417
v 0.131759 0.645721 0.129307
v 0.180913 0.645721 0.129307
v 0.125094 0.605457 0.063012
v 0.187578 0.605457 0.063012
v 0.131759 0.685172 0.168417
v 0.132504 0.686492 0.162564
v 0.180913 0.685172 0.168417
v 0.180168 0.686492 0.162564
# 80 vertices

vt 0.13793 0.45351
vt 0.13793 0.12018
vt 0.22126 0.24518
vt 0.34626 0.24518
vt 0.34626 0.32851
vt 0.23459 0.28263
vt 0.23459 0.29092
vt 0.33293 0.29092
vt 0.33293 0.28263
vt 0.23459 0.24518
vt 0.33293 0.24518
vt 0.33144 0.24937
vt 0.23608 0.24937
vt 0.34626 0.27855
vt 0.34626 0.24902
vt 0.34477 0.25321
vt 0.22126 0.27855
vt 0.22275 0.25321
vt 0.22126 0.24902
vt 0.22126 0.28684
vt 0.22126 0.32851
vt 0.47126 0.12018
vt 0.47126 0.45351
# 23 texture vertices

vn 0.00000 0.00000 1.00000
vn 0.00000 0.00000 -1.00000
vn 0.00000 1.00000 0.00000
vn 0.00000 -1.00000 0.00000
vn 0.00000 -0.72820 0.68536
vn 0.00000 0.75782 -0.65246
vn 0.00000 0.85471 -0.51911
vn 0.00000 0.85471 -0.51911
vn 0.00000 0.75782 -0.65246
vn 0.00000 0.25015 0.96821
vn 0.00000 0.25015 0.96821
vn 0.00000 0.25015 0.96821
vn 0.00000 0.97548 0.22009
vn 0.00000 0.97548 0.22009
vn 0.00000 0.97548 0.22009
vn 0.00000 0.63209 -0.77490
vn 0.00000 0.63209 -0.77490
vn 0.99778 0.06014 -0.02843
vn 0.99791 0.05910 -0.02615
vn 0.99229 0.08726 -0.08802
vn 0.99229 0.08726 -0.08802
vn -0.99778 0.06015 -0.02843
vn -0.99229 0.08727 -0.08803
vn -0.99229 0.08727 -0.08803
vn -0.99791 0.05911 -0.02615
vn -0.99906 0.04145 0.01239
vn -0.99906 0.04145 0.01239
vn 0.99906 0.04145 0.01239
vn 0.99906 0.04145 0.01239
vn 0.00000 -0.72820 0.68536
vn 0.00000 0.75782 -0.65246
vn 0.00000 0.85471 -0.51911
vn 0.00000 0.25015 0.96821
vn 0.00000 0.25015 0.96821
vn 0.00000 0.97548 0.22009
vn 0.00000 0.63209 -0.77490
vn -0.99778 0.06014 -0.02843
vn -0.99229 0.08726 -0.08802
vn -0.99229 0.08726 -0.08802
vn -0.99791 0.05910 -0.02615
vn 0.99778 0.06014 -0.02843
vn 0.99791 0.05910 -0.02615
vn 0.99229 0.08726 -0.08802
vn 0.99229 0.08726 -0.08802
vn 0.99906 0.04145 0.01239
vn 0.99906 0.04145 0.01239
vn -0.99906 0.04145 0.01239
vn -0.99906 0.04145 0.01239
vn 1.00000 0.00000 0.00000
vn -1.00000 0.00000 0.00000
vn 0.00000 -0.72820 0.68536
vn 0.00000 0.75782 -0.65246
vn 0.00000 0.85471 -0.51911
vn 0.00000 0.85471 -0.51911
vn 0.00000 0.75782 -0.65246
vn 0.00000 0.25015 0.96821
vn 0.00000 0.25015 0.96821
vn 0.00000 0.25015 0.96821
vn 0.00000 0.63209 -0.77490
vn 0.00000 0.63209 -0.77490
vn 0.99778 0.06014 -0.02843
vn 0.99791 0.05910 -0.02615
vn 0.99229 0.08726 -0.08802
vn 0.99229 0.08726 -0.08802
vn -0.99778 0.06015 -0.02843
vn -0.99229 0.08727 -0.08803
vn -0.99229 0.08727 -0.08803
vn -0.99791 0.05911 -0.02615
vn -0.99906 0.04145 0.01239
vn -0.99906 0.04145 0.01239
vn 0.99906 0.04145 0.01239
vn 0.99906 0.04145 0.01239
vn 0.00000 0.75782 -0.65247
vn 0.00000 0.85471 -0.51911
vn 0.00000 0.25015 0.96821
vn -0.99779 0.06014 -0.02843
vn -0.99229 0.08726 -0.08802
vn -0.99229 0.08726 -0.08802
vn -0.99791 0.05910 -0.02615
vn 0.99779 0.06014 -0.02843
vn 0.99791 0.05910 -0.02615
vn 0.99229 0.08726 -0.08802
vn 0.99229 0.08726 -0.08802
vn 0.99906 0.04145 0.01239
vn 0.99906 0.04145 0.01239
vn -0.99906 0.04145 0.01239
vn -0.99906 0.04145 0.01239
# 87 normal vertices

g q_W_2
s 1
usemtl main
f 15/2/1 19/2/1 17/1/1 13/1/1
f 20/2/2 16/2/2 14/1/2 18/1/2
f 20/2/1 18/1/1 14/1/1 16/2/1
f 17/1/2 19/2/2 15/2/2 13/1/2
f 19/2/3 15/2/3 16/2/3 20/2/3
f 13/1/4 17/1/4 18/1/4 14/1/4
f 8/2/3 12/2/3 11/2/3 7/2/3
f 5/1/4 9/1/4 10/1/4 6/1/4
f 9/1/1 5/1/1 7/2/1 11/2/1
f 6/1/2 10/1/2 12/2/2 8/2/2
f 4/3/5 3/5/5 1/4/5 2/3/5
f 21/9/9 23/8/8 24/7/7 22/6/6
f 2/3/12 1/4/11 25/11/10 27/10/10
f 28/13/15 27/10/13 25/11/14 26/12/13
f 26/12/17 21/9/9 22/6/6 28/13/16
f 26/16/21 25/15/20 1/4/19 21/14/18
f 2/3/25 27/19/24 28/18/23 22/17/22
f 4/21/27 2/3/25 22/17/22 24/20/26
f 21/14/18 1/4/19 3/5/29 23/5/28
f 29/4/30 31/5/30 32/3/30 30/3/30
f 36/7/32 35/8/32 33/9/31 34/6/31
f 37/11/33 29/4/34 30/3/34 39/10/33
f 37/11/35 39/10/35 40/13/13 38/12/13
f 34/6/31 33/9/31 38/12/36 40/13/36
f 29/4/40 37/15/39 38/16/38 33/14/37
f 40/18/44 39/19/43 30/3/42 34/17/41
f 34/17/41 30/3/42 32/21/46 36/20/45
f 31/5/48 29/4/40 33/14/37 35/5/47
f 44/23/49 42/23/49 41/22/49 43/22/49
f 46/1/2 48/2/2 41/22/2 42/23/2
f 43/22/3 41/22/3 48/2/3 47/2/3
f 46/1/50 45/1/50 47/2/50 48/2/50
f 42/23/4 44/23/4 45/1/4 46/1/4
f 47/2/1 45/1/1 44/23/1 43/22/1
f 49/22/50 50/23/50 52/23/50 51/22/50
f 49/22/2 56/2/2 54/1/2 50/23/2
f 56/2/3 49/22/3 51/22/3 55/2/3
f 55/2/49 53/1/49 54/1/49 56/2/49
f 53/1/4 52/23/4 50/23/4 54/1/4
f 52/23/1 53/1/1 55/2/1 51/22/1
f 60/3/51 59/5/51 57/4/51 58/3/51
f 61/9/55 63/8/54 64/7/53 62/6/52
f 58/3/56 57/4/58 65/11/57 67/10/56
f 68/13/15 67/10/13 65/11/14 66/12/13
f 66/12/60 61/9/55 62/6/52 68/13/59
f 66/16/64 65/15/63 57/4/62 61/14/61
f 58/3/68 67/19/67 68/18/66 62/17/65
f 60/21/70 58/3/68 62/17/65 64/20/69
f 61/14/61 57/4/62 59/5/72 63/5/71
f 69/4/51 71/5/51 72/3/51 70/3/51
f 76/7/74 75/8/74 73/9/73 74/6/73
f 77/11/75 69/4/58 70/3/58 79/10/75
f 77/11/35 79/10/35 80/13/13 78/12/13
f 74/6/73 73/9/73 78/12/17 80/13/17
f 69/4/79 77/15/78 78/16/77 73/14/76
f 80/18/83 79/19/82 70/3/81 74/17/80
f 74/17/80 70/3/81 72/21/85 76/20/84
f 71/5/87 69/4/79 73/14/76 75/5/86
# 58 elements

